<svg width="64" height="64" viewBox="0 0 64 64" fill="none" xmlns="http://www.w3.org/2000/svg">
<g filter="url(#filter0_i_2025_344)">
<rect width="64" height="64" rx="16" fill="url(#paint0_linear_2025_344)"/>
<path d="M21.3315 48.18H17.4709C16.5596 48.18 15.8201 47.4405 15.8201 46.5292V42.6686C15.8201 40.5093 17.0923 38.5372 19.0622 37.6457C19.8876 37.2694 20.8693 37.6369 21.2457 38.4689C21.6221 39.2987 21.2523 40.2782 20.4225 40.6524C19.6323 41.0112 19.1217 41.8013 19.1217 42.6686V44.8784H21.3315C22.1987 44.8784 22.9889 44.3678 23.3477 43.5776C23.7219 42.7478 24.7035 42.3802 25.5311 42.7544C26.3609 43.1308 26.7307 44.108 26.3543 44.9378C25.4629 46.9078 23.4908 48.18 21.3315 48.18Z" fill="white"/>
<path d="M43.198 34.7937C51.2011 26.0027 50.3206 16.0913 50.1864 14.971C50.0961 14.2116 49.4996 13.6151 48.7403 13.5249C47.6155 13.3862 37.7108 12.5102 28.9175 20.5133L26.6879 20.1149C23.307 19.514 19.8492 20.9293 17.866 23.7268L13.7324 29.564C13.312 30.1583 13.3296 30.9551 13.7743 31.5296C14.0956 31.9434 14.5798 32.1701 15.0795 32.1701C15.2776 32.1701 15.4779 32.1348 15.6694 32.0622C15.698 32.0512 18.0201 31.2016 21.4714 31.3381C21.0972 32.3021 20.8309 33.1539 20.6416 33.8451C20.4853 34.4173 20.646 35.0292 21.0664 35.4496L28.2682 42.6515C28.583 42.9663 29.0034 43.1357 29.4348 43.1357C29.5801 43.1357 29.7275 43.1159 29.8706 43.0763C30.5595 42.887 31.4113 42.6207 32.3732 42.2465C32.5009 45.6692 31.6601 48.0243 31.6513 48.0485C31.3915 48.7286 31.6072 49.4968 32.1817 49.9414C32.4789 50.1703 32.8354 50.287 33.192 50.287C33.5266 50.287 33.8611 50.1857 34.1473 49.9832L39.9889 45.8452C42.7842 43.8665 44.1995 40.4064 43.5964 37.0344L43.1958 34.7981L43.198 34.7937ZM37.6403 22.2213C39.7666 22.2213 41.4922 23.9447 41.4922 26.0731C41.4922 28.2016 39.7666 29.925 37.6403 29.925C35.5141 29.925 33.7885 28.2016 33.7885 26.0731C33.7885 23.9447 35.5141 22.2213 37.6403 22.2213ZM18.8213 28.0937L20.5623 25.6373C21.8081 23.8787 23.9762 22.9828 26.1112 23.3658L26.186 23.379C24.8324 25.0078 23.7517 26.641 22.9351 28.1619C21.4207 28.0145 20.0055 27.9881 18.8235 28.0915L18.8213 28.0937ZM38.0827 43.1489L35.6198 44.8922C35.7254 43.7124 35.699 42.2949 35.5493 40.7806C37.0703 39.964 38.7034 38.8833 40.3322 37.5296L40.3476 37.6133C40.7262 39.7329 39.837 41.9053 38.0805 43.1489H38.0827Z" fill="white"/>
</g>
<defs>
<filter id="filter0_i_2025_344" x="0" y="-2" width="64" height="66" filterUnits="userSpaceOnUse" color-interpolation-filters="sRGB">
<feFlood flood-opacity="0" result="BackgroundImageFix"/>
<feBlend mode="normal" in="SourceGraphic" in2="BackgroundImageFix" result="shape"/>
<feColorMatrix in="SourceAlpha" type="matrix" values="0 0 0 0 0 0 0 0 0 0 0 0 0 0 0 0 0 0 127 0" result="hardAlpha"/>
<feOffset dy="-2"/>
<feGaussianBlur stdDeviation="2.5"/>
<feComposite in2="hardAlpha" operator="arithmetic" k2="-1" k3="1"/>
<feColorMatrix type="matrix" values="0 0 0 0 0 0 0 0 0 0 0 0 0 0 0 0 0 0 0.1 0"/>
<feBlend mode="normal" in2="shape" result="effect1_innerShadow_2025_344"/>
</filter>
<linearGradient id="paint0_linear_2025_344" x1="32" y1="0" x2="32" y2="64" gradientUnits="userSpaceOnUse">
<stop stop-color="#8851FF"/>
<stop offset="1" stop-color="#6435CC"/>
</linearGradient>
</defs>
</svg>
