<svg width="250" height="64" viewBox="0 0 250 64" fill="none" xmlns="http://www.w3.org/2000/svg">
<g filter="url(#filter0_i_2025_343)">
<rect width="64" height="64" rx="16" fill="url(#paint0_linear_2025_343)"/>
<path d="M21.3315 48.18H17.4709C16.5596 48.18 15.8201 47.4405 15.8201 46.5292V42.6686C15.8201 40.5093 17.0923 38.5372 19.0622 37.6457C19.8876 37.2694 20.8693 37.6369 21.2457 38.4689C21.6221 39.2987 21.2523 40.2782 20.4225 40.6524C19.6323 41.0112 19.1217 41.8013 19.1217 42.6686V44.8784H21.3315C22.1987 44.8784 22.9889 44.3678 23.3477 43.5776C23.7219 42.7478 24.7035 42.3802 25.5311 42.7544C26.3609 43.1308 26.7307 44.108 26.3543 44.9378C25.4629 46.9078 23.4908 48.18 21.3315 48.18Z" fill="white"/>
<path d="M43.198 34.7937C51.2011 26.0027 50.3206 16.0913 50.1864 14.971C50.0961 14.2116 49.4996 13.6151 48.7403 13.5249C47.6155 13.3862 37.7108 12.5102 28.9175 20.5133L26.6879 20.1149C23.307 19.514 19.8492 20.9293 17.866 23.7268L13.7324 29.564C13.312 30.1583 13.3296 30.9551 13.7743 31.5296C14.0956 31.9434 14.5798 32.1701 15.0795 32.1701C15.2776 32.1701 15.4779 32.1348 15.6694 32.0622C15.698 32.0512 18.0201 31.2016 21.4714 31.3381C21.0972 32.3021 20.8309 33.1539 20.6416 33.8451C20.4853 34.4173 20.646 35.0292 21.0664 35.4496L28.2682 42.6515C28.583 42.9663 29.0034 43.1357 29.4348 43.1357C29.5801 43.1357 29.7275 43.1159 29.8706 43.0763C30.5595 42.887 31.4113 42.6207 32.3732 42.2465C32.5009 45.6692 31.6601 48.0243 31.6513 48.0485C31.3915 48.7286 31.6072 49.4968 32.1817 49.9414C32.4789 50.1703 32.8354 50.287 33.192 50.287C33.5266 50.287 33.8611 50.1857 34.1473 49.9832L39.9889 45.8452C42.7842 43.8665 44.1995 40.4064 43.5964 37.0344L43.1958 34.7981L43.198 34.7937ZM37.6403 22.2213C39.7666 22.2213 41.4922 23.9447 41.4922 26.0731C41.4922 28.2016 39.7666 29.925 37.6403 29.925C35.5141 29.925 33.7885 28.2016 33.7885 26.0731C33.7885 23.9447 35.5141 22.2213 37.6403 22.2213ZM18.8213 28.0937L20.5623 25.6373C21.8081 23.8787 23.9762 22.9828 26.1112 23.3658L26.186 23.379C24.8324 25.0078 23.7517 26.641 22.9351 28.1619C21.4207 28.0145 20.0055 27.9881 18.8235 28.0915L18.8213 28.0937ZM38.0827 43.1489L35.6198 44.8922C35.7254 43.7124 35.699 42.2949 35.5493 40.7806C37.0703 39.964 38.7034 38.8833 40.3322 37.5296L40.3476 37.6133C40.7262 39.7329 39.837 41.9053 38.0805 43.1489H38.0827Z" fill="white"/>
</g>
<path d="M79.56 25.92C79.56 24.2133 80 22.7067 80.88 21.4C81.76 20.0933 82.9733 19.08 84.52 18.36C86.0933 17.6133 87.9067 17.24 89.96 17.24C91.9333 17.24 93.64 17.5867 95.08 18.28C96.5467 18.9733 97.68 19.96 98.48 21.24C99.3067 22.52 99.7467 24.04 99.8 25.8H94.68C94.6267 24.5467 94.1733 23.5733 93.32 22.88C92.4667 22.16 91.32 21.8 89.88 21.8C88.3067 21.8 87.04 22.16 86.08 22.88C85.1467 23.5733 84.68 24.5333 84.68 25.76C84.68 26.8 84.96 27.6267 85.52 28.24C86.1067 28.8267 87.0133 29.2667 88.24 29.56L92.84 30.6C95.3467 31.1333 97.2133 32.0533 98.44 33.36C99.6667 34.64 100.28 36.3733 100.28 38.56C100.28 40.3467 99.84 41.92 98.96 43.28C98.08 44.64 96.8267 45.6933 95.2 46.44C93.6 47.16 91.72 47.52 89.56 47.52C87.5067 47.52 85.7067 47.1733 84.16 46.48C82.6133 45.76 81.4 44.76 80.52 43.48C79.6667 42.2 79.2133 40.6933 79.16 38.96H84.28C84.3067 40.1867 84.7867 41.16 85.72 41.88C86.68 42.5733 87.9733 42.92 89.6 42.92C91.3067 42.92 92.6533 42.5733 93.64 41.88C94.6533 41.16 95.16 40.2133 95.16 39.04C95.16 38.0267 94.8933 37.2267 94.36 36.64C93.8267 36.0267 92.96 35.6 91.76 35.36L87.12 34.32C84.64 33.7867 82.76 32.8267 81.48 31.44C80.2 30.0267 79.56 28.1867 79.56 25.92ZM113.032 47.52C111.085 47.52 109.352 47.08 107.832 46.2C106.339 45.2933 105.165 44.0667 104.312 42.52C103.459 40.9467 103.032 39.1467 103.032 37.12C103.032 35.0667 103.445 33.2533 104.272 31.68C105.099 30.1067 106.259 28.88 107.752 28C109.245 27.0933 110.952 26.64 112.872 26.64C114.872 26.64 116.592 27.0667 118.032 27.92C119.472 28.7467 120.579 29.9067 121.352 31.4C122.152 32.8933 122.552 34.68 122.552 36.76V38.24L105.592 38.28L105.672 35.16H117.712C117.712 33.8 117.272 32.7067 116.392 31.88C115.539 31.0533 114.379 30.64 112.912 30.64C111.765 30.64 110.792 30.88 109.992 31.36C109.219 31.84 108.632 32.56 108.232 33.52C107.832 34.48 107.632 35.6533 107.632 37.04C107.632 39.1733 108.085 40.7867 108.992 41.88C109.925 42.9733 111.299 43.52 113.112 43.52C114.445 43.52 115.539 43.2667 116.392 42.76C117.272 42.2533 117.845 41.5333 118.112 40.6H122.632C122.205 42.76 121.139 44.4533 119.432 45.68C117.752 46.9067 115.619 47.52 113.032 47.52ZM131.338 47H126.458V27.24H130.978L131.378 29.8C131.991 28.8133 132.858 28.04 133.978 27.48C135.124 26.92 136.364 26.64 137.698 26.64C140.178 26.64 142.044 27.3733 143.298 28.84C144.578 30.3067 145.218 32.3067 145.218 34.84V47H140.338V36C140.338 34.3467 139.964 33.12 139.218 32.32C138.471 31.4933 137.458 31.08 136.178 31.08C134.658 31.08 133.471 31.56 132.618 32.52C131.764 33.48 131.338 34.76 131.338 36.36V47ZM158.132 47.52C156.212 47.52 154.559 47.0933 153.172 46.24C151.812 45.36 150.746 44.1467 149.972 42.6C149.226 41.0533 148.852 39.2533 148.852 37.2C148.852 35.1467 149.226 33.3333 149.972 31.76C150.746 30.16 151.852 28.9067 153.292 28C154.732 27.0933 156.439 26.64 158.412 26.64C159.799 26.64 161.066 26.92 162.212 27.48C163.359 28.0133 164.239 28.7733 164.852 29.76V17.24H169.692V47H165.212L164.892 43.92C164.306 45.04 163.399 45.92 162.172 46.56C160.972 47.2 159.626 47.52 158.132 47.52ZM159.212 43.04C160.359 43.04 161.346 42.8 162.172 42.32C162.999 41.8133 163.639 41.1067 164.092 40.2C164.572 39.2667 164.812 38.2133 164.812 37.04C164.812 35.84 164.572 34.8 164.092 33.92C163.639 33.0133 162.999 32.3067 162.172 31.8C161.346 31.2667 160.359 31 159.212 31C158.092 31 157.119 31.2667 156.292 31.8C155.466 32.3067 154.826 33.0133 154.372 33.92C153.946 34.8267 153.732 35.8667 153.732 37.04C153.732 38.2133 153.946 39.2533 154.372 40.16C154.826 41.0667 155.466 41.7733 156.292 42.28C157.119 42.7867 158.092 43.04 159.212 43.04ZM180.458 47H175.498V17.76H180.458L189.898 41.04L199.338 17.76H204.378V47H199.418V38C199.418 36.5333 199.418 35.3067 199.418 34.32C199.418 33.3067 199.431 32.4533 199.458 31.76C199.484 31.0667 199.511 30.4533 199.538 29.92C199.564 29.3867 199.618 28.8533 199.698 28.32L192.258 47H187.538L180.138 28.36C180.271 29.24 180.351 30.36 180.378 31.72C180.431 33.08 180.458 34.68 180.458 36.52V47ZM216.009 47.52C213.929 47.52 212.276 46.96 211.049 45.84C209.849 44.6933 209.249 43.2 209.249 41.36C209.249 39.5467 209.876 38.1067 211.129 37.04C212.409 35.9467 214.223 35.3067 216.569 35.12L222.489 34.64V34.2C222.489 33.2933 222.316 32.5733 221.969 32.04C221.649 31.48 221.183 31.08 220.569 30.84C219.956 30.5733 219.236 30.44 218.409 30.44C216.969 30.44 215.863 30.7333 215.089 31.32C214.316 31.88 213.929 32.68 213.929 33.72H209.769C209.769 32.28 210.129 31.04 210.849 30C211.596 28.9333 212.636 28.1067 213.969 27.52C215.329 26.9333 216.889 26.64 218.649 26.64C220.436 26.64 221.969 26.96 223.249 27.6C224.529 28.2133 225.516 29.1467 226.209 30.4C226.903 31.6267 227.249 33.16 227.249 35V47H222.969L222.609 44.08C222.183 45.0933 221.356 45.92 220.129 46.56C218.929 47.2 217.556 47.52 216.009 47.52ZM217.569 43.84C219.089 43.84 220.289 43.4133 221.169 42.56C222.076 41.7067 222.529 40.52 222.529 39V37.96L218.409 38.28C216.889 38.4133 215.809 38.7333 215.169 39.24C214.529 39.72 214.209 40.36 214.209 41.16C214.209 42.04 214.503 42.7067 215.089 43.16C215.676 43.6133 216.503 43.84 217.569 43.84ZM232.043 47V27.24H236.923V47H232.043ZM234.443 23.28C233.617 23.28 232.91 23 232.323 22.44C231.763 21.8533 231.483 21.1467 231.483 20.32C231.483 19.4933 231.763 18.8 232.323 18.24C232.91 17.68 233.617 17.4 234.443 17.4C235.27 17.4 235.963 17.68 236.523 18.24C237.11 18.8 237.403 19.4933 237.403 20.32C237.403 21.1467 237.11 21.8533 236.523 22.44C235.963 23 235.27 23.28 234.443 23.28ZM246.885 47H242.045V17.24H246.885V47Z" fill="url(#paint1_linear_2025_343)"/>
<defs>
<filter id="filter0_i_2025_343" x="0" y="-2" width="64" height="66" filterUnits="userSpaceOnUse" color-interpolation-filters="sRGB">
<feFlood flood-opacity="0" result="BackgroundImageFix"/>
<feBlend mode="normal" in="SourceGraphic" in2="BackgroundImageFix" result="shape"/>
<feColorMatrix in="SourceAlpha" type="matrix" values="0 0 0 0 0 0 0 0 0 0 0 0 0 0 0 0 0 0 127 0" result="hardAlpha"/>
<feOffset dy="-2"/>
<feGaussianBlur stdDeviation="2.5"/>
<feComposite in2="hardAlpha" operator="arithmetic" k2="-1" k3="1"/>
<feColorMatrix type="matrix" values="0 0 0 0 0 0 0 0 0 0 0 0 0 0 0 0 0 0 0.1 0"/>
<feBlend mode="normal" in2="shape" result="effect1_innerShadow_2025_343"/>
</filter>
<linearGradient id="paint0_linear_2025_343" x1="32" y1="0" x2="32" y2="64" gradientUnits="userSpaceOnUse">
<stop stop-color="#8851FF"/>
<stop offset="1" stop-color="#6435CC"/>
</linearGradient>
<linearGradient id="paint1_linear_2025_343" x1="164" y1="59" x2="164" y2="5" gradientUnits="userSpaceOnUse">
<stop stop-color="#232323"/>
<stop offset="1" stop-color="#8E8E8E"/>
</linearGradient>
</defs>
</svg>
